<?xml version="1.0" encoding="UTF-8" standalone="no"?>
<svg width="10mm" height="10mm" viewBox="0 0 10 10" version="1.1" id="svg26662" inkscape:version="1.2.2 (732a01da63, 2022-12-09)" sodipodi:docname="pir.svg"
   xmlns:inkscape="http://www.inkscape.org/namespaces/inkscape"
   xmlns:sodipodi="http://sodipodi.sourceforge.net/DTD/sodipodi-0.dtd"
   xmlns="http://www.w3.org/2000/svg"
   xmlns:svg="http://www.w3.org/2000/svg">
   <sodipodi:namedview id="namedview26664" pagecolor="#505050" bordercolor="#eeeeee" borderopacity="1" inkscape:showpageshadow="0" inkscape:pageopacity="0" inkscape:pagecheckerboard="0" inkscape:deskcolor="#505050" inkscape:document-units="mm" showgrid="false" inkscape:zoom="10.35098" inkscape:cx="16.375261" inkscape:cy="42.073312" inkscape:window-width="1488" inkscape:window-height="1230" inkscape:window-x="2794" inkscape:window-y="123" inkscape:window-maximized="0" inkscape:current-layer="layer1" />
   <defs id="defs26659" />
   <g inkscape:label="Слой 1" inkscape:groupmode="layer" id="layer1">
      <path id="path26647" style="fill:#e7f9fb;fill-opacity:1;stroke:none;stroke-width:0.734686;stroke-linecap:round;stroke-linejoin:round;stroke-miterlimit:5.8;stroke-dasharray:none;stroke-opacity:1;paint-order:normal" d="M 0.953646,0 C 0.4245958,0 0,0.42377 0,0.950056 V 9.051658 C 0,9.577943 0.4245958,9.9999995 0.953646,9.9999995 H 9.044545 C 9.573595,9.9999995 10,9.577943 10,9.051658 V 0.950056 C 10,0.42377 9.573595,0 9.044545,0 Z m 4.0319653,0.680202 c 0.7122257,0 1.1971907,0.171336 1.6235677,0.587681 C 7.149602,1.795597 7.303455,2.529484 7.076165,3.503527 6.954393,4.024672 6.743646,4.411034 6.384675,4.767983 6.046182,5.105514 5.7597,5.274565 5.369942,5.364516 4.7470347,5.510152 4.177518,5.313116 3.618915,4.763985 3.260174,4.411034 3.0504322,4.028385 2.9274247,3.503527 2.6985267,2.5272 2.8504547,1.797596 3.392573,1.267883 3.8051351,0.866387 4.2970505,0.680202 4.9856113,0.680202 Z M 4.1253339,2.785916 C 3.7727965,2.786202 3.5578276,2.980097 3.5578276,3.29821 c 0,0.197035 0.074385,0.320683 0.2711164,0.455467 C 4.0618628,3.91359 4.4444125,3.833637 4.5886441,3.596619 4.6788251,3.450984 4.6839941,3.154002 4.6001321,3.01265 4.5082281,2.855593 4.3583101,2.784203 4.1277751,2.784203 Z m 1.7295441,0 c -0.20506,0 -0.404923,0.09423 -0.493868,0.26557 C 5.226026,3.311345 5.34091,3.641452 5.60714,3.779948 5.859588,3.90845 6.185962,3.822778 6.372268,3.574345 6.463308,3.45441 6.469338,3.164568 6.383758,3.033211 6.273759,2.864731 6.062581,2.784774 5.85752,2.784774 Z M 1.8659927,5.307119 c 0.00862,-5.71e-4 0.020104,0 0.03073,0 0.2179844,2.86e-4 0.5876389,0.16848 1.6846262,0.695051 C 4.3488321,6.369399 4.9972712,6.669808 5.018122,6.669808 5.038222,6.669237 5.68049,6.371113 6.440564,6.008738 7.200522,5.64465 7.88377,5.323396 7.958155,5.323396 8.14742,5.283416 8.403142,5.409066 8.509492,5.577544 8.663431,5.82598 8.604552,6.167795 8.374795,6.361404 8.316205,6.409954 6.898963,7.091579 5.226428,7.875439 2.6791977,9.069933 2.1554033,9.312944 1.9972712,9.312944 c -0.2153996,0 -0.2679571,0 -0.3915391,-0.114223 C 1.3150575,8.936006 1.3506989,8.509952 1.6827021,8.264656 1.7519171,8.213256 2.1996325,7.990519 2.6777048,7.764356 3.1557197,7.54162 3.5582872,7.334304 3.5756915,7.334304 c 0.01436,0 -0.3826933,-0.217025 -0.8872167,-0.448042 C 2.1839513,6.654959 1.7142365,6.421657 1.646802,6.369971 1.4819495,6.24718 1.4026824,6.080128 1.4026824,5.863103 c 0,-0.219881 0.09535,-0.394643 0.2731268,-0.491448 0.063758,-0.03141 0.1203366,-0.05711 0.1901261,-0.06282 z M 7.094115,7.62329 7.661622,7.905994 c 0.784456,0.383506 0.930354,0.522573 0.930354,0.881807 0,0.219881 -0.105403,0.397498 -0.280307,0.480311 -0.151641,0.06568 -0.331859,0.06853 -0.513628,0 C 7.59815,9.193862 5.819639,8.388875 5.788334,8.354036 c -0.01436,0 0.273414,-0.182758 0.639363,-0.378651 z" />
   </g>
</svg>
